<svg width="22" height="22" viewBox="0 0 22 22" fill="none" xmlns="http://www.w3.org/2000/svg">
<path d="M4.5166 6.2326C5.1529 6.0805 5.8171 6 6.5 6C11.1944 6 15 9.8056 15 14.5C15 14.9835 14.9596 15.4575 14.8821 15.9189C14.9183 15.8841 14.9557 15.8521 14.9951 15.8222C15.2757 15.6092 15.6251 15.5301 16.3241 15.3719L16.9605 15.228C19.4201 14.6714 20.65 14.3932 20.9426 13.4523C21.2352 12.5113 20.3967 11.5309 18.7199 9.5701L18.2861 9.0628C17.8096 8.5056 17.5713 8.227 17.4641 7.8823C17.3569 7.5376 17.393 7.1659 17.465 6.4224L17.5306 5.7456C17.7841 3.1294 17.9109 1.8213 17.1448 1.2398C16.3788 0.658299 15.2273 1.1884 12.9243 2.2488L12.3285 2.5232C11.6741 2.8245 11.3469 2.9751 11 2.9751C10.6531 2.9751 10.3259 2.8245 9.6715 2.5232L9.0757 2.2488C6.7727 1.1884 5.6212 0.658299 4.8551 1.2398C4.0891 1.8213 4.2159 3.1294 4.4694 5.7456L4.5166 6.2326Z" stroke="white"/>
<path opacity="0.5" d="M13.847 17.5916L14.1747 17.0038C14.5346 16.3581 14.7146 16.0352 14.9952 15.8222C14.9558 15.8521 14.9184 15.8841 14.8822 15.919C14.9598 15.4575 15.0001 14.9835 15.0001 14.5C15.0001 9.8056 11.1946 6 6.5001 6C5.8172 6 5.1531 6.0805 4.5167 6.2326L4.5351 6.4224C4.6072 7.1659 4.6432 7.5376 4.536 7.8823C4.4288 8.227 4.1906 8.5056 3.7141 9.0628L3.2802 9.5701C1.6034 11.5309 0.764997 12.5114 1.0576 13.4523C1.3502 14.3932 2.58 14.6714 5.0397 15.228L5.676 15.372C6.375 15.5301 6.7245 15.6092 7.0051 15.8222C7.2857 16.0352 7.4657 16.3581 7.8256 17.0038L8.1533 17.5916C9.42 19.8639 10.0533 21 11.0001 21C11.947 21 12.5803 19.8639 13.847 17.5916Z" stroke="white"/>
</svg>
